<svg width="1443" height="531" viewBox="0 0 1443 531" fill="none" xmlns="http://www.w3.org/2000/svg">
<path d="M0.835228 437.455H-0.164772V438.455H0.835228V437.455ZM0.835228 330.068L-0.00864744 329.532L-0.164772 329.777V330.068H0.835228ZM205.665 7.90908V6.90908H205.116L204.821 7.37254L205.665 7.90908ZM303.108 7.90908H304.108V6.90908H303.108V7.90908ZM303.108 151.091V152.091H304.108V151.091H303.108ZM247.426 151.091V150.091H246.875L246.58 150.557L247.426 151.091ZM137.057 326.091L136.211 325.557L136.057 325.802V326.091H137.057ZM137.057 330.068H136.057V331.068H137.057V330.068ZM439.33 330.068H440.33V329.068H439.33V330.068ZM439.33 437.455V438.455H440.33V437.455H439.33ZM248.42 517H247.42V518H248.42V517ZM248.42 404.642L247.422 404.578L247.42 404.61V404.642H248.42ZM251.403 357.909L252.401 357.973L252.403 357.941V357.909H251.403ZM251.403 7.90908V6.90908H250.403V7.90908H251.403ZM380.665 7.90908H381.665V6.90908H380.665V7.90908ZM380.665 517V518H381.665V517H380.665ZM1.83523 437.455V330.068H-0.164772V437.455H1.83523ZM1.6791 330.605L206.509 8.44561L204.821 7.37254L-0.00864744 329.532L1.6791 330.605ZM205.665 8.90908H303.108V6.90908H205.665V8.90908ZM302.108 7.90908V151.091H304.108V7.90908H302.108ZM303.108 150.091H247.426V152.091H303.108V150.091ZM246.58 150.557L136.211 325.557L137.903 326.624L248.272 151.624L246.58 150.557ZM136.057 326.091V330.068H138.057V326.091H136.057ZM137.057 331.068H439.33V329.068H137.057V331.068ZM438.33 330.068V437.455H440.33V330.068H438.33ZM439.33 436.455H0.835228V438.455H439.33V436.455ZM249.42 517V404.642H247.42V517H249.42ZM249.418 404.706L252.401 357.973L250.405 357.845L247.422 404.578L249.418 404.706ZM252.403 357.909V7.90908H250.403V357.909H252.403ZM251.403 8.90908H380.665V6.90908H251.403V8.90908ZM379.665 7.90908V517H381.665V7.90908H379.665ZM380.665 516H248.42V518H380.665V516ZM719.044 530.92L719.04 531.92H719.044V530.92ZM599.228 498.854L598.695 499.7L598.695 499.7L599.228 498.854ZM521.423 407.128L520.513 407.543L520.513 407.543L521.423 407.128ZM494.328 263.449L495.328 263.452L495.328 263.452L494.328 263.449ZM521.672 120.764L520.765 120.342L520.764 120.345L521.672 120.764ZM599.228 31.5241L598.71 30.6689L598.708 30.67L599.228 31.5241ZM838.859 31.7727L838.338 32.6261L838.341 32.628L838.859 31.7727ZM916.664 121.013L917.571 120.59L917.571 120.59L916.664 121.013ZM943.76 263.449L942.76 263.446V263.449H943.76ZM916.416 407.625L917.326 408.04L917.326 408.04L916.416 407.625ZM838.61 499.351L839.143 500.197L839.144 500.197L838.61 499.351ZM777.708 381.276L776.857 380.751L776.856 380.753L777.708 381.276ZM800.578 263.449H799.578L799.578 263.452L800.578 263.449ZM790.137 177.689L791.092 177.39L791.092 177.39L790.137 177.689ZM761.302 128.47L760.642 129.222L760.648 129.227L761.302 128.47ZM660.627 148.605L659.779 148.076L659.779 148.076L660.627 148.605ZM637.51 263.449L636.51 263.443L636.51 263.444L637.51 263.449ZM647.701 351.446L646.744 351.735L646.745 351.737L647.701 351.446ZM676.537 402.156L675.871 402.903L675.876 402.907L676.537 402.156ZM719.047 529.92C672.968 529.755 633.22 519.105 599.762 498.008L598.695 499.7C632.519 521.027 672.648 531.754 719.04 531.92L719.047 529.92ZM599.762 498.008C566.302 476.91 540.49 446.493 522.333 406.713L520.513 407.543C538.815 447.64 564.872 478.373 598.695 499.7L599.762 498.008ZM522.333 406.713C504.177 366.936 495.162 319.193 495.328 263.452L493.328 263.446C493.162 319.4 502.21 367.443 520.513 407.543L522.333 406.713ZM495.328 263.452C495.493 207.541 504.591 160.13 522.579 121.184L520.764 120.345C502.625 159.618 493.494 207.33 493.328 263.446L495.328 263.452ZM522.578 121.187C540.732 82.2368 566.458 52.6489 599.748 32.3783L598.708 30.67C565.047 51.1664 539.069 81.0718 520.765 120.342L522.578 121.187ZM599.747 32.3794C633.206 12.1061 672.958 1.94884 719.044 1.94884V-0.0511553C672.658 -0.0511553 632.533 10.1752 598.71 30.6689L599.747 32.3794ZM719.044 1.94884C765.128 1.94884 804.879 12.1883 838.338 32.6261L839.38 30.9193C805.557 10.2587 765.431 -0.0511553 719.044 -0.0511553V1.94884ZM838.341 32.628C871.796 52.8989 897.604 82.4867 915.758 121.435L917.571 120.59C899.266 81.3191 873.204 51.4135 839.377 30.9175L838.341 32.628ZM915.758 121.435C933.91 160.379 942.925 207.704 942.76 263.446L944.76 263.452C944.926 207.499 935.878 159.867 917.571 120.59L915.758 121.435ZM942.76 263.449C942.76 319.523 933.662 367.433 915.506 407.21L917.326 408.04C935.628 367.94 944.76 319.733 944.76 263.449H942.76ZM915.506 407.21C897.349 446.99 871.537 477.407 838.077 498.505L839.144 500.197C872.967 478.87 899.024 448.137 917.326 408.04L915.506 407.21ZM838.078 498.504C804.788 519.434 765.124 529.92 719.044 529.92V531.92C765.435 531.92 805.483 521.36 839.143 500.197L838.078 498.504ZM719.044 419.562C743.336 419.562 763.18 406.876 778.561 381.798L776.856 380.753C761.745 405.391 742.478 417.562 719.044 417.562V419.562ZM778.56 381.8C794.121 356.534 801.744 317.028 801.578 263.446L799.578 263.452C799.743 316.924 792.12 355.969 776.857 380.751L778.56 381.8ZM801.578 263.449C801.578 228.426 798.093 199.729 791.092 177.39L789.183 177.988C796.102 200.062 799.578 228.538 799.578 263.449H801.578ZM791.092 177.39C784.099 155.079 774.409 138.483 761.956 127.714L760.648 129.227C772.722 139.669 782.256 155.886 789.183 177.988L791.092 177.39ZM761.962 127.719C749.522 116.791 735.203 111.312 719.044 111.312V113.312C734.703 113.312 748.556 118.605 760.642 129.221L761.962 127.719ZM719.044 111.312C694.763 111.312 675.001 123.655 659.779 148.076L661.476 149.134C676.415 125.165 695.597 113.312 719.044 113.312V111.312ZM659.779 148.076C644.549 172.511 636.841 211.022 636.51 263.443L638.51 263.455C638.841 211.14 646.545 173.089 661.476 149.134L659.779 148.076ZM636.51 263.444C636.344 299.13 639.745 328.571 646.744 351.735L648.659 351.157C641.737 328.251 638.344 299.027 638.51 263.454L636.51 263.444ZM646.745 351.737C653.735 374.707 663.422 391.799 675.871 402.903L677.202 401.41C665.125 390.638 655.588 373.924 648.658 351.155L646.745 351.737ZM675.876 402.907C688.479 413.998 702.881 419.562 719.044 419.562V417.562C703.388 417.562 689.452 412.19 677.197 401.406L675.876 402.907ZM1003.67 437.455H1002.67V438.455H1003.67V437.455ZM1003.67 330.068L1002.82 329.532L1002.67 329.777V330.068H1003.67ZM1208.5 7.90908V6.90908H1207.95L1207.65 7.37254L1208.5 7.90908ZM1305.94 7.90908H1306.94V6.90908H1305.94V7.90908ZM1305.94 151.091V152.091H1306.94V151.091H1305.94ZM1250.26 151.091V150.091H1249.71L1249.41 150.557L1250.26 151.091ZM1139.89 326.091L1139.04 325.557L1138.89 325.802V326.091H1139.89ZM1139.89 330.068H1138.89V331.068H1139.89V330.068ZM1442.16 330.068H1443.16V329.068H1442.16V330.068ZM1442.16 437.455V438.455H1443.16V437.455H1442.16ZM1251.25 517H1250.25V518H1251.25V517ZM1251.25 404.642L1250.25 404.578L1250.25 404.61V404.642H1251.25ZM1254.24 357.909L1255.23 357.973L1255.24 357.941V357.909H1254.24ZM1254.24 7.90908V6.90908H1253.24V7.90908H1254.24ZM1383.5 7.90908H1384.5V6.90908H1383.5V7.90908ZM1383.5 517V518H1384.5V517H1383.5ZM1004.67 437.455V330.068H1002.67V437.455H1004.67ZM1004.51 330.605L1209.34 8.44561L1207.65 7.37254L1002.82 329.532L1004.51 330.605ZM1208.5 8.90908H1305.94V6.90908H1208.5V8.90908ZM1304.94 7.90908V151.091H1306.94V7.90908H1304.94ZM1305.94 150.091H1250.26V152.091H1305.94V150.091ZM1249.41 150.557L1139.04 325.557L1140.73 326.624L1251.1 151.624L1249.41 150.557ZM1138.89 326.091V330.068H1140.89V326.091H1138.89ZM1139.89 331.068H1442.16V329.068H1139.89V331.068ZM1441.16 330.068V437.455H1443.16V330.068H1441.16ZM1442.16 436.455H1003.67V438.455H1442.16V436.455ZM1252.25 517V404.642H1250.25V517H1252.25ZM1252.25 404.706L1255.23 357.973L1253.24 357.845L1250.25 404.578L1252.25 404.706ZM1255.24 357.909V7.90908H1253.24V357.909H1255.24ZM1254.24 8.90908H1383.5V6.90908H1254.24V8.90908ZM1382.5 7.90908V517H1384.5V7.90908H1382.5ZM1383.5 516H1251.25V518H1383.5V516Z" fill="#00A1DE" fill-opacity="0.3"/>
</svg>
