<svg width="128" height="91" viewBox="0 0 128 91" fill="none" xmlns="http://www.w3.org/2000/svg">
<path d="M117 19.134V73.2948C81.5259 93.942 37.7292 94.1744 2.02511 73.8695L1 73.2865V19.1419L2.07395 18.6137C38.3586 0.76718 80.8997 0.969819 117 19.134Z" stroke="white" stroke-width="2"/>
<g filter="url(#filter0_b_301_2925)">
<path d="M117.801 28.4907V71.9802C116.185 72.9317 114.549 73.8363 112.896 74.6939C110.133 75.4171 107.13 75.7788 103.888 75.7788C98.644 75.7788 93.9852 74.8306 89.9117 72.9344C85.8382 71.0381 82.6192 68.4278 80.2548 65.1034C77.9137 61.7791 76.6963 57.9631 76.6027 53.6555H93.4585C93.5989 56.301 94.6758 58.4314 96.6892 60.0467C98.7025 61.6386 101.102 62.4346 103.888 62.4346C106.065 62.4346 107.997 61.9547 109.682 60.9948C111.368 60.035 112.69 58.6889 113.65 56.9565C114.61 55.2007 115.078 53.1873 115.055 50.9165C115.078 48.5988 114.598 46.5738 113.615 44.8414C112.655 43.109 111.321 41.7628 109.612 40.803C107.926 39.8197 105.983 39.3281 103.783 39.3281C101.699 39.3047 99.7209 39.7612 97.848 40.6976C95.9985 41.6341 94.5939 42.91 93.634 44.5253L78.2882 41.6458L81.4136 2.87744H127.556V16.8888H95.7059L94.0554 33.85H94.4768C95.6708 31.8601 97.5905 30.2213 100.236 28.9337C102.905 27.6227 105.936 26.9672 109.331 26.9672C112.391 26.9672 115.214 27.475 117.801 28.4907Z" fill="white" fill-opacity="0.3"/>
</g>
<path d="M63.888 73.4364L63.8898 73.4355C68.2325 71.1792 71.6267 68.0598 74.0449 64.079C76.4914 60.0902 77.7028 55.5285 77.7028 50.4248C77.7028 45.7127 76.6867 41.4921 74.6281 37.7906C72.6012 34.104 69.8076 31.2096 66.2558 29.1266C62.7157 27.0132 58.697 25.9672 54.2283 25.9672C50.7033 25.9672 47.5179 26.6485 44.694 28.0353C42.9124 28.9026 41.4136 29.9374 40.2204 31.1488L41.5107 17.8888H72.4537H73.4537V16.8888V2.87744V1.87744H72.4537H26.3109H25.3883L25.3142 2.79709L22.1888 41.5654L22.1165 42.4626L23.0012 42.6286L38.347 45.5082L39.034 45.6371L39.3911 45.0361C40.2436 43.6014 41.4977 42.4507 43.1947 41.591C44.9254 40.7261 46.7458 40.3064 48.6687 40.328V40.3281H48.68C50.7266 40.3281 52.4915 40.7837 54.0054 41.6668L54.0125 41.6709L54.0196 41.6749C55.565 42.5429 56.7669 43.7541 57.6378 45.326L57.6378 45.326L57.6428 45.335C58.5256 46.8904 58.9743 48.736 58.9523 50.9064L58.9522 50.9166L58.9523 50.9268C58.9742 53.0489 58.5378 54.8887 57.6714 56.4745C56.7987 58.0486 55.6064 59.2593 54.0847 60.1259C52.5677 60.9897 50.8107 61.4346 48.7853 61.4346C46.2054 61.4346 44.0303 60.7031 42.2096 59.2645C40.4267 57.8329 39.4801 55.9709 39.3544 53.6025L39.3041 52.6555H38.3558H21.5H20.478L20.5002 53.6773C20.5979 58.1711 21.872 62.1825 24.3345 65.6792L24.3372 65.683C26.8121 69.1626 30.1728 71.8792 34.387 73.841C38.613 75.8082 43.4197 76.7788 48.7853 76.7788C54.5097 76.7788 59.554 75.6765 63.888 73.4364Z" fill="#0065BD" stroke="white" stroke-width="2"/>
<defs>
<filter id="filter0_b_301_2925" x="69.4109" y="-4.31437" width="65.3373" height="87.285" filterUnits="userSpaceOnUse" color-interpolation-filters="sRGB">
<feFlood flood-opacity="0" result="BackgroundImageFix"/>
<feGaussianBlur in="BackgroundImageFix" stdDeviation="3.5959"/>
<feComposite in2="SourceAlpha" operator="in" result="effect1_backgroundBlur_301_2925"/>
<feBlend mode="normal" in="SourceGraphic" in2="effect1_backgroundBlur_301_2925" result="shape"/>
</filter>
</defs>
</svg>
