<svg width="154" height="145" viewBox="0 0 154 145" fill="none" xmlns="http://www.w3.org/2000/svg">
<circle cx="70" cy="75" r="70" fill="#F3F5F5"/>
<g filter="url(#filter0_b_131_8314)">
<path d="M119.5 0L122.911 21.7712L136.75 4.62212L128.818 25.1819L149.378 17.25L132.229 31.0893L154 34.5L132.229 37.9107L149.378 51.75L128.818 43.8181L136.75 64.3779L122.911 47.2288L119.5 69L116.089 47.2288L102.25 64.3779L110.182 43.8181L89.6221 51.75L106.771 37.9107L85 34.5L106.771 31.0893L89.6221 17.25L110.182 25.1819L102.25 4.62212L116.089 21.7712L119.5 0Z" fill="#00A1DE" fill-opacity="0.2"/>
</g>
<path d="M26.1626 106.242L25.3245 108.058L25.3365 108.064L26.1626 106.242ZM16.9901 98.8594L15.3573 100.014L15.3626 100.022L16.9901 98.8594ZM13.6023 88.0568V86.0568H11.5812L11.6024 88.0778L13.6023 88.0568ZM30.8608 88.0568L32.86 88.0002L32.805 86.0568H30.8608V88.0568ZM33.4815 93.4581L32.2345 95.0218L32.2442 95.0294L33.4815 93.4581ZM44.348 94.321L45.317 96.0706L45.3272 96.0649L45.3374 96.0592L44.348 94.321ZM47.608 90.9972L45.8572 90.0303L47.608 90.9972ZM48.7585 86.0114L46.7586 85.9891L46.7584 86.0115L46.7587 86.0338L48.7585 86.0114ZM47.608 81.0256L45.8571 81.9924L45.8634 82.0036L47.608 81.0256ZM44.348 77.7337L43.3586 79.4718L43.3688 79.4776L43.379 79.4832L44.348 77.7337ZM34.3445 77.9254L35.3317 79.6648L35.3392 79.6605L34.3445 77.9254ZM30.8608 81.6648L30.4748 83.6272L32.011 83.9294L32.6732 82.5105L30.8608 81.6648ZM15.2642 78.5966L13.2692 78.4551L13.1442 80.2179L14.8782 80.559L15.2642 78.5966ZM17.821 42.5455V40.5455H15.9578L15.826 42.404L17.821 42.5455ZM61.7983 42.5455H63.7983V40.5455H61.7983V42.5455ZM61.7983 56.7358V58.7358H63.7983V56.7358H61.7983ZM32.3949 56.7358V54.7358H30.5641L30.4027 56.5595L32.3949 56.7358ZM31.1165 71.1818L29.1243 71.0055L28.9317 73.1818H31.1165V71.1818ZM31.5 71.1818V73.1818H32.7184L33.2772 72.0991L31.5 71.1818ZM36.8054 66.2599L37.7239 68.0366L37.7357 68.0304L36.8054 66.2599ZM55.9815 66.995L54.9596 68.7142L54.9649 68.7174L55.9815 66.995ZM63.2365 74.5057L61.4865 75.474L61.4904 75.4809L61.4943 75.4879L63.2365 74.5057ZM65.8892 85.5L63.8892 85.4897L63.8892 85.4995L63.8892 85.5093L65.8892 85.5ZM62.6293 97.6449L60.9298 96.5904L60.9281 96.5932L62.6293 97.6449ZM53.4567 105.923L54.355 107.71L54.3627 107.706L53.4567 105.923ZM39.554 106.895C34.7613 106.895 30.587 106.053 26.9887 104.421L25.3365 108.064C29.5365 109.969 34.2898 110.895 39.554 110.895V106.895ZM27.0008 104.426C23.4029 102.766 20.6313 100.516 18.6175 97.6969L15.3626 100.022C17.8232 103.467 21.1667 106.139 25.3245 108.058L27.0008 104.426ZM18.6228 97.7043C16.6563 94.9248 15.6408 91.725 15.6022 88.0359L11.6024 88.0778C11.649 92.5279 12.892 96.5298 15.3574 100.014L18.6228 97.7043ZM13.6023 90.0568H30.8608V86.0568H13.6023V90.0568ZM28.8616 88.1134C28.9412 90.9272 30.0655 93.292 32.2346 95.0218L34.7285 91.8944C33.5311 90.9395 32.9082 89.7035 32.86 88.0002L28.8616 88.1134ZM32.2442 95.0294C34.3304 96.6723 36.7998 97.4716 39.554 97.4716V93.4716C37.6207 93.4716 36.0417 92.9286 34.7189 91.8868L32.2442 95.0294ZM39.554 97.4716C41.6547 97.4716 43.5951 97.0243 45.317 96.0706L43.379 92.5714C42.331 93.1519 41.0754 93.4716 39.554 93.4716V97.4716ZM45.3374 96.0592C47.0501 95.0843 48.3968 93.7059 49.3587 91.964L45.8572 90.0303C45.2424 91.1435 44.4159 91.9811 43.3586 92.5829L45.3374 96.0592ZM49.3587 91.964C50.3397 90.1876 50.783 88.1741 50.7584 85.9889L46.7587 86.0338C46.7767 87.6412 46.4529 88.9516 45.8572 90.0303L49.3587 91.964ZM50.7584 86.0336C50.7829 83.8325 50.3419 81.8124 49.3525 80.0476L45.8634 82.0036C46.4507 83.0513 46.7768 84.355 46.7586 85.9891L50.7584 86.0336ZM49.3587 80.0587C48.3943 78.3124 47.0412 76.939 45.317 75.9841L43.379 79.4832C44.4247 80.0624 45.2449 80.8837 45.8572 81.9924L49.3587 80.0587ZM45.3374 75.9955C43.6117 75.0132 41.6639 74.5511 39.554 74.5511V78.5511C41.0662 78.5511 42.3144 78.8774 43.3586 79.4718L45.3374 75.9955ZM39.554 74.5511C37.3365 74.5511 35.2561 75.0973 33.3497 76.1904L35.3392 79.6605C36.6288 78.9211 38.0215 78.5511 39.554 78.5511V74.5511ZM33.3573 76.1861C31.4302 77.2798 29.975 78.8335 29.0484 80.819L32.6732 82.5105C33.2381 81.3 34.1053 80.3609 35.3317 79.6648L33.3573 76.1861ZM31.2468 79.7024L15.6502 76.6342L14.8782 80.559L30.4748 83.6272L31.2468 79.7024ZM17.2592 78.7381L19.816 42.6869L15.826 42.404L13.2692 78.4551L17.2592 78.7381ZM17.821 44.5455H61.7983V40.5455H17.821V44.5455ZM59.7983 42.5455V56.7358H63.7983V42.5455H59.7983ZM61.7983 54.7358H32.3949V58.7358H61.7983V54.7358ZM30.4027 56.5595L29.1243 71.0055L33.1087 71.3581L34.3871 56.9121L30.4027 56.5595ZM31.1165 73.1818H31.5V69.1818H31.1165V73.1818ZM33.2772 72.0991C34.0641 70.5746 35.4785 69.1973 37.7238 68.0366L35.887 64.4833C33.1039 65.922 30.9814 67.826 29.7228 70.2645L33.2772 72.0991ZM37.7357 68.0304C39.9177 66.8839 42.5075 66.2784 45.5625 66.2784V62.2784C41.9698 62.2784 38.7215 62.9939 35.8751 64.4895L37.7357 68.0304ZM45.5625 66.2784C49.139 66.2784 52.2523 67.105 54.9596 68.7142L57.0034 65.2758C53.617 63.2629 49.7843 62.2784 45.5625 62.2784V66.2784ZM54.9649 68.7174C57.7177 70.3423 59.8863 72.582 61.4865 75.474L64.9865 73.5374C63.0498 70.0373 60.3817 67.2699 56.9982 65.2727L54.9649 68.7174ZM61.4943 75.4879C63.0906 78.3195 63.909 81.6331 63.8892 85.4897L67.8892 85.5103C67.912 81.0573 66.9619 77.0413 64.9787 73.5235L61.4943 75.4879ZM63.8892 85.5093C63.909 89.7304 62.9076 93.403 60.9298 96.5904L64.3287 98.6994C66.7402 94.8129 67.9121 90.3889 67.8892 85.4907L63.8892 85.5093ZM60.9281 96.5932C58.9613 99.7748 56.189 102.291 52.5507 104.14L54.3627 107.706C58.6078 105.549 61.9507 102.546 64.3305 98.6965L60.9281 96.5932ZM52.5584 104.136C48.9473 105.951 44.6327 106.895 39.554 106.895V110.895C45.1287 110.895 50.0825 109.857 54.355 107.71L52.5584 104.136ZM86.3677 106.242L85.5296 108.058L85.5416 108.064L86.3677 106.242ZM77.1951 98.8594L75.5624 100.014L75.5677 100.022L77.1951 98.8594ZM73.8074 88.0568V86.0568H71.7863L71.8075 88.0778L73.8074 88.0568ZM91.0659 88.0568L93.0651 88.0002L93.0101 86.0568H91.0659V88.0568ZM93.6866 93.4581L92.4396 95.0218L92.4492 95.0294L93.6866 93.4581ZM104.553 94.321L105.522 96.0706L105.532 96.0649L105.542 96.0592L104.553 94.321ZM107.813 90.9972L106.062 90.0303L107.813 90.9972ZM108.964 86.0114L106.964 85.9891L106.963 86.0115L106.964 86.0338L108.964 86.0114ZM107.813 81.0256L106.062 81.9924L106.068 82.0036L107.813 81.0256ZM104.553 77.7337L103.564 79.4718L103.574 79.4776L103.584 79.4832L104.553 77.7337ZM94.5495 77.9254L95.5368 79.6648L95.5443 79.6605L94.5495 77.9254ZM91.0659 81.6648L90.6798 83.6272L92.2161 83.9294L92.8782 82.5105L91.0659 81.6648ZM75.4693 78.5966L73.4743 78.4551L73.3493 80.2179L75.0832 80.559L75.4693 78.5966ZM78.0261 42.5455V40.5455H76.1629L76.0311 42.404L78.0261 42.5455ZM122.003 42.5455H124.003V40.5455H122.003V42.5455ZM122.003 56.7358V58.7358H124.003V56.7358H122.003ZM92.6 56.7358V54.7358H90.7691L90.6077 56.5595L92.6 56.7358ZM91.3216 71.1818L89.3293 71.0055L89.1367 73.1818H91.3216V71.1818ZM91.7051 71.1818V73.1818H92.9235L93.4823 72.0991L91.7051 71.1818ZM97.0105 66.2599L97.9289 68.0366L97.9407 68.0304L97.0105 66.2599ZM116.187 66.995L115.165 68.7142L115.17 68.7174L116.187 66.995ZM123.442 74.5057L121.692 75.474L121.695 75.4809L121.699 75.4879L123.442 74.5057ZM126.094 85.5L124.094 85.4897L124.094 85.4995L124.094 85.5093L126.094 85.5ZM122.834 97.6449L121.135 96.5904L121.133 96.5932L122.834 97.6449ZM113.662 105.923L114.56 107.71L114.568 107.706L113.662 105.923ZM99.7591 106.895C94.9664 106.895 90.7921 106.053 87.1938 104.421L85.5416 108.064C89.7416 109.969 94.4949 110.895 99.7591 110.895V106.895ZM87.2058 104.426C83.608 102.766 80.8364 100.516 78.8226 97.6969L75.5677 100.022C78.0283 103.467 81.3717 106.139 85.5296 108.058L87.2058 104.426ZM78.8278 97.7043C76.8614 94.9248 75.8459 91.725 75.8072 88.0359L71.8075 88.0778C71.8541 92.5279 73.097 96.5298 75.5624 100.014L78.8278 97.7043ZM73.8074 90.0568H91.0659V86.0568H73.8074V90.0568ZM89.0667 88.1134C89.1463 90.9272 90.2706 93.292 92.4396 95.0218L94.9336 91.8944C93.7362 90.9395 93.1133 89.7035 93.0651 88.0002L89.0667 88.1134ZM92.4492 95.0294C94.5355 96.6723 97.0049 97.4716 99.7591 97.4716V93.4716C97.8257 93.4716 96.2468 92.9286 94.924 91.8868L92.4492 95.0294ZM99.7591 97.4716C101.86 97.4716 103.8 97.0243 105.522 96.0706L103.584 92.5714C102.536 93.1519 101.281 93.4716 99.7591 93.4716V97.4716ZM105.542 96.0592C107.255 95.0843 108.602 93.7059 109.564 91.964L106.062 90.0303C105.448 91.1435 104.621 91.9811 103.564 92.5829L105.542 96.0592ZM109.564 91.964C110.545 90.1876 110.988 88.1741 110.963 85.9889L106.964 86.0338C106.982 87.6412 106.658 88.9516 106.062 90.0303L109.564 91.964ZM110.963 86.0336C110.988 83.8325 110.547 81.8124 109.558 80.0476L106.068 82.0036C106.656 83.0513 106.982 84.355 106.964 85.9891L110.963 86.0336ZM109.564 80.0587C108.599 78.3124 107.246 76.939 105.522 75.9841L103.584 79.4832C104.63 80.0624 105.45 80.8837 106.062 81.9924L109.564 80.0587ZM105.542 75.9955C103.817 75.0132 101.869 74.5511 99.7591 74.5511V78.5511C101.271 78.5511 102.519 78.8774 103.564 79.4718L105.542 75.9955ZM99.7591 74.5511C97.5416 74.5511 95.4612 75.0973 93.5548 76.1904L95.5443 79.6605C96.8339 78.9211 98.2265 78.5511 99.7591 78.5511V74.5511ZM93.5623 76.1861C91.6353 77.2798 90.1801 78.8335 89.2535 80.819L92.8782 82.5105C93.4432 81.3 94.3104 80.3609 95.5368 79.6648L93.5623 76.1861ZM91.4519 79.7024L75.8553 76.6342L75.0832 80.559L90.6798 83.6272L91.4519 79.7024ZM77.4643 78.7381L80.0211 42.6869L76.0311 42.404L73.4743 78.4551L77.4643 78.7381ZM78.0261 44.5455H122.003V40.5455H78.0261V44.5455ZM120.003 42.5455V56.7358H124.003V42.5455H120.003ZM122.003 54.7358H92.6V58.7358H122.003V54.7358ZM90.6077 56.5595L89.3293 71.0055L93.3138 71.3581L94.5922 56.9121L90.6077 56.5595ZM91.3216 73.1818H91.7051V69.1818H91.3216V73.1818ZM93.4823 72.0991C94.2692 70.5746 95.6836 69.1973 97.9289 68.0366L96.092 64.4833C93.3089 65.922 91.1864 67.826 89.9278 70.2645L93.4823 72.0991ZM97.9407 68.0304C100.123 66.8839 102.713 66.2784 105.768 66.2784V62.2784C102.175 62.2784 98.9266 62.9939 96.0802 64.4895L97.9407 68.0304ZM105.768 66.2784C109.344 66.2784 112.457 67.105 115.165 68.7142L117.209 65.2758C113.822 63.2629 109.989 62.2784 105.768 62.2784V66.2784ZM115.17 68.7174C117.923 70.3423 120.091 72.582 121.692 75.474L125.192 73.5374C123.255 70.0373 120.587 67.2699 117.203 65.2727L115.17 68.7174ZM121.699 75.4879C123.296 78.3195 124.114 81.6331 124.094 85.4897L128.094 85.5103C128.117 81.0573 127.167 77.0413 125.184 73.5235L121.699 75.4879ZM124.094 85.5093C124.114 89.7304 123.113 93.403 121.135 96.5904L124.534 98.6994C126.945 94.8129 128.117 90.3889 128.094 85.4907L124.094 85.5093ZM121.133 96.5932C119.166 99.7748 116.394 102.291 112.756 104.14L114.568 107.706C118.813 105.549 122.156 102.546 124.536 98.6965L121.133 96.5932ZM112.763 104.136C109.152 105.951 104.838 106.895 99.7591 106.895V110.895C105.334 110.895 110.288 109.857 114.56 107.71L112.763 104.136Z" fill="#0065BD"/>
<defs>
<filter id="filter0_b_131_8314" x="77" y="-8" width="85" height="85" filterUnits="userSpaceOnUse" color-interpolation-filters="sRGB">
<feFlood flood-opacity="0" result="BackgroundImageFix"/>
<feGaussianBlur in="BackgroundImageFix" stdDeviation="4"/>
<feComposite in2="SourceAlpha" operator="in" result="effect1_backgroundBlur_131_8314"/>
<feBlend mode="normal" in="SourceGraphic" in2="effect1_backgroundBlur_131_8314" result="shape"/>
</filter>
</defs>
</svg>
