<svg width="266" height="196" viewBox="0 0 266 196" fill="none" xmlns="http://www.w3.org/2000/svg">
<g opacity="0.5">
<path d="M265.074 12.0301H202.786V1.6488H186.565V12.0301H100.271V1.6488H84.0502V12.0301C72.155 12.0301 46.1585 12.0301 37.3344 12.0301C26.3043 12.0301 1 24.3578 1 95.7291" stroke="#00A1DE"/>
<path d="M80.1572 1H103.515" stroke="#00A1DE"/>
<path d="M182.672 1H206.03" stroke="#00A1DE"/>
<path d="M265.164 178.13H229.388V125.575H196.947V178.13H100.271H84.0502C72.155 178.13 46.1585 178.13 37.3344 178.13C26.3043 178.13 1 165.803 1 94.4314" stroke="#00A1DE"/>
<path d="M202.137 178.13V143.742H223.548V178.13M202.137 178.13V195H223.548V178.13M202.137 178.13C201.618 178.13 197.163 178.13 195 178.13M223.548 178.13H231.334" stroke="#00A1DE"/>
</g>
</svg>
