<svg width="167" height="254" viewBox="0 0 167 254" fill="none" xmlns="http://www.w3.org/2000/svg">
<g opacity="0.5" clip-path="url(#clip0_308_3195)">
<path d="M79.4208 3H160.762C166.152 3 166.152 12.8001 160.762 12.8001H147.042V65.7207C152.105 67.1907 162.232 74.1488 162.232 90.221C162.232 106.293 162.232 350.741 162.232 470.955H87.7509" stroke="#00A1DE"/>
<path d="M87.3834 3H6.04252C0.652456 3 0.652456 12.8001 6.04252 12.8001H19.7627V65.7207C14.6993 67.1907 4.5725 74.1488 4.5725 90.221C4.5725 106.293 4.5725 350.741 4.5725 470.955H79.0533" stroke="#00A1DE"/>
<path d="M83.4633 12.8719C83.4633 12.8719 64.6798 12.7103 56.023 12.8719V58.8606C61.9031 57.7292 67.6606 56.4105 72.5607 56.4105" stroke="#00A1DE"/>
<path d="M83.3409 12.8719C83.3409 12.8719 102.124 12.7103 110.781 12.8719V58.8606C104.901 57.7292 99.1436 56.4105 94.2435 56.4105" stroke="#00A1DE"/>
<path d="M43.2829 60.8206V12.8H31.5228V63.7606L43.2829 60.8206Z" stroke="#00A1DE"/>
<path d="M122.523 60.8206V12.8H134.283V63.7606L122.523 60.8206Z" stroke="#00A1DE"/>
<path d="M75.0107 13.7801V34.3603L67.6606 35.8303V51.5105L72.5607 56.9006" stroke="#00A1DE"/>
<path d="M92.161 13.7801V34.3603L99.511 35.8303V51.5105L94.611 56.9006" stroke="#00A1DE"/>
</g>
<defs>
<clipPath id="clip0_308_3195">
<rect width="167" height="254" fill="white"/>
</clipPath>
</defs>
</svg>
