<svg width="299" height="199" viewBox="0 0 299 199" fill="none" xmlns="http://www.w3.org/2000/svg">
<g opacity="0.5" clip-path="url(#clip0_308_3196)">
<circle cx="87.726" cy="49.3556" r="21.9238" stroke="#00A1DE"/>
<circle cx="166.067" cy="49.3556" r="21.9238" stroke="#00A1DE"/>
<path d="M114.619 68.4514C117.877 66.5333 121.674 65.4331 125.727 65.4331C137.836 65.4331 147.651 75.2487 147.651 87.3569C147.651 99.4651 137.836 109.281 125.727 109.281C113.619 109.281 103.803 99.4651 103.803 87.3569C103.803 82.2893 105.523 77.6232 108.41 73.9103M114.619 68.4514L106.727 60.756M114.619 68.4514C112.219 69.8647 110.112 71.7219 108.41 73.9103M108.41 73.9103L100.88 66.8947" stroke="#00A1DE"/>
<path d="M138.882 69.5255L147.359 60.4637M144.728 75.9565L153.205 67.4793" stroke="#00A1DE"/>
<path d="M120.173 42.6323H133.035M120.173 42.6323V66.6023M120.173 42.6323L118.419 40.2937V30.0626H134.789V40.2937L133.035 42.6323M133.035 42.6323V66.6023" stroke="#00A1DE"/>
<path d="M172.398 95.5209L172.398 80.3621M172.398 95.5209L175.714 95.5209L176.883 99.0705L224.531 99.0705L228.936 94.6648L254.932 94.6648L254.932 100.804L282.702 100.804L282.702 75.9565L274.225 75.9565L279.779 71.5717L279.779 57.8328M172.398 95.5209L170.078 97.588L154.082 97.588L154.082 92.9109L147.066 92.9109M172.398 80.3621L175.714 80.3621L177.76 75.9565L224.531 75.9565L228.936 80.3621L254.932 80.3621L254.932 75.9565L263.409 75.9565L257.855 71.5717L257.855 27.724L263.409 25.3855L256.978 23.3392L256.978 14.5697L263.409 12.2311L263.409 2.00001L274.225 2.00001L274.225 12.2311L280.656 14.5697L280.656 23.3392L274.225 25.3855L279.779 27.724L279.779 42.3399M172.398 80.3621L170.078 78.295L154.082 78.295L154.082 83.8491L147.359 83.8491" stroke="#00A1DE"/>
<rect x="119.589" y="109.281" width="13.4466" height="31.5703" stroke="#00A1DE"/>
<path d="M278.015 42.3399C265.864 42.3399 264.774 52.4736 265.747 57.5405H337.309C350.395 57.5405 352.498 47.4068 351.913 42.3399H278.015Z" stroke="#00A1DE"/>
<circle cx="275.979" cy="49.9402" r="3.80013" stroke="#00A1DE"/>
<path d="M126.604 158.39H77.7872L73.1101 162.775H59.3711M123.389 140.266V146.99H77.7872L73.1101 142.313H60.2481M47.3861 142.313H38.3242L34.5241 146.99H23.1237V136.759H5V177.098H23.1237V158.39H34.5241L38.3242 162.775H48.263" stroke="#00A1DE"/>
<path d="M126.604 158.39H175.421L180.098 162.775H191.06M129.82 140.266V146.99H175.421L180.098 142.313H189.745M202.899 142.313H214.884L218.684 146.99H230.085V136.759H248.208V177.098H230.085V158.39H218.684L214.884 162.775H202.022" stroke="#00A1DE"/>
<path d="M47.0938 150.498V139.682H60.2481V150.498L56.7403 196.976H51.7709L47.0938 150.498Z" stroke="#00A1DE"/>
<path d="M189.745 150.498V139.682H202.899V150.498L199.391 196.976H194.422L189.745 150.498Z" stroke="#00A1DE"/>
</g>
<defs>
<clipPath id="clip0_308_3196">
<rect width="299" height="199" fill="white"/>
</clipPath>
</defs>
</svg>
