<svg width="170" height="56" viewBox="0 0 170 56" fill="none" xmlns="http://www.w3.org/2000/svg">
<g clip-path="url(#clip0_80_1161)">
<path fill-rule="evenodd" clip-rule="evenodd" d="M22.8 43.0264C30.96 42.6158 37.92 39.9883 41.28 36.3754V30.217C45.44 30.4633 49.84 31.2845 53.44 33.0909C54 33.4194 54.8 33.912 55.6 34.5689V47.2962C54.8 47.871 54 48.3636 53.44 48.6921C49.2 50.827 43.84 51.6481 39.2 51.6481C34.48 51.6481 29.2 50.827 24.96 48.6921C24.4 48.3636 23.52 47.871 22.8 47.2962V43.0264ZM52.48 28C55.6 26.8504 58.24 25.2903 59.84 23.4018V6.73314C56.24 2.70968 48.32 0 39.2 0C30 0 22.16 2.70968 18.48 6.73314V12.8915C10.24 13.3021 3.28 16.0117 0 19.6246V36.3754C3.28 39.9883 10.24 42.6158 18.48 43.0264V49.2669C22.16 53.2903 30 56 39.2 56C48.32 56 56.24 53.2903 59.84 49.2669V32.5982C58.24 30.7097 55.6 29.1496 52.48 28ZM18.48 17.3255V23.4018C20.16 25.2903 22.72 26.8504 25.92 28C22.72 29.1496 20.16 30.7097 18.48 32.5982V38.6745C14.4 38.4282 10 37.607 6.4 35.8006C5.84 35.4721 5.04 34.9795 4.16 34.4047V21.5953C5.04 21.0205 5.84 20.5279 6.4 20.1994C10 18.393 14.4 17.5718 18.48 17.3255ZM22.8 21.4311V17.3255C26.88 17.5718 31.28 18.393 34.88 20.1994C35.36 20.5279 36.24 21.0205 37.04 21.5953V25.783C32.96 25.5367 28.56 24.7155 24.96 22.827C24.4 22.5806 23.52 22.088 22.8 21.4311ZM22.8 12.8915V8.70381C23.52 8.04692 24.4 7.55425 24.96 7.30792C29.2 5.09091 34.48 4.35191 39.2 4.35191C43.84 4.35191 49.2 5.09091 53.44 7.30792C54 7.55425 54.8 8.04692 55.6 8.70381V21.4311C54.8 22.088 54 22.5806 53.44 22.827C49.84 24.7155 45.44 25.5367 41.28 25.783V19.6246C37.92 16.0117 30.96 13.3021 22.8 12.8915ZM22.8 38.6745V34.5689C23.52 33.912 24.4 33.4194 24.96 33.0909C28.56 31.2845 32.96 30.4633 37.04 30.217V34.4047C36.24 34.9795 35.36 35.4721 34.88 35.8006C31.28 37.607 26.88 38.4282 22.8 38.6745Z" fill="white"/>
<path fill-rule="evenodd" clip-rule="evenodd" d="M148.08 8.70386H169.84V13.5484H161.04V27.9179H155.04V13.5484H146.24L148.08 8.70386ZM124.48 8.70386H145.28V13.5484H130.56V16.0118H145.36L145.28 20.61H130.56V23.0734H145.28V27.9179H124.48V8.70386ZM68.48 8.70386H74.48V23.0734H87.44V8.70386H93.44V23.0734H98.56L96.72 27.9179H68.48V8.70386ZM105.52 23.0734H112.16C113.84 23.0734 114.8 23.0734 115.12 23.0734C115.44 23.0734 115.68 22.9912 115.92 22.9091C116.4 22.827 116.64 22.4165 116.64 21.7596C116.64 21.1848 116.32 20.7742 115.76 20.6921C115.6 20.61 114.32 20.61 112.16 20.61H105.52V23.0734ZM105.52 16.0118H112.56C114.32 16.0118 115.36 15.9297 115.68 15.8476C116.16 15.6833 116.32 15.3549 116.32 14.698C116.32 14.1232 116.08 13.7127 115.52 13.6305C115.36 13.5484 114.32 13.5484 112.56 13.5484H105.52V16.0118ZM99.44 27.9179V8.70386H113.6C116.56 8.70386 117.52 8.70386 118.08 8.78597C119.68 8.86808 120.72 9.27864 121.36 10.0176C122.08 10.7566 122.4 11.9883 122.4 13.7127C122.4 15.1086 122.24 16.0939 121.84 16.7508C121.44 17.4077 120.72 17.9824 119.84 18.3109C120.64 18.5572 121.52 18.9678 121.92 19.5426C122.56 20.3637 122.72 21.5954 122.72 22.7449C122.72 24.9619 122.16 26.2757 120.96 27.0968C120.24 27.5074 119.28 27.7537 118 27.8358C117.36 27.8358 116.56 27.9179 113.92 27.9179H99.44Z" fill="white"/>
<path fill-rule="evenodd" clip-rule="evenodd" d="M167.68 46.7214H168.48C168.8 46.7214 169.04 46.6393 169.12 46.6393C169.28 46.4751 169.36 46.393 169.36 46.2288C169.36 46.0645 169.36 45.9824 169.2 45.9003C169.2 45.7361 169.04 45.7361 168.96 45.654C168.88 45.654 168.64 45.654 168.4 45.654H167.68V46.7214ZM167.68 45.1613H168.32C168.56 45.1613 168.72 45.0792 168.8 45.0792C168.96 45.0792 169.04 44.9971 169.12 44.915C169.2 44.8329 169.2 44.7507 169.2 44.6686C169.2 44.4223 169.12 44.3402 169.04 44.2581C168.88 44.176 168.64 44.0939 168.32 44.0939H167.68V45.1613ZM167.12 43.6012H168.48C168.8 43.6012 169.04 43.6833 169.2 43.6833C169.36 43.7654 169.52 43.8475 169.6 44.0117C169.76 44.176 169.84 44.3402 169.84 44.5865C169.84 44.7507 169.76 44.915 169.68 44.9971C169.6 45.1613 169.52 45.2434 169.36 45.3255C169.52 45.4076 169.68 45.4897 169.84 45.654C169.92 45.8182 170 45.9824 170 46.2288C169.92 46.5572 169.84 46.8035 169.6 46.9678C169.36 47.132 169.04 47.2141 168.64 47.2141H167.12V43.6012ZM163.44 43.6012H166.32V44.0939H165.2V47.2141H164.64V44.0939H163.44V43.6012ZM162.56 45.9003L163.12 45.9824C163.04 46.393 162.88 46.7214 162.64 46.9678C162.4 47.2141 162 47.2962 161.68 47.2962C161.2 47.2962 160.8 47.132 160.48 46.8035C160.24 46.4751 160.08 46.0645 160.08 45.4076C160.08 45.0792 160.16 44.6686 160.24 44.4223C160.4 44.0939 160.56 43.9296 160.8 43.7654C161.04 43.6012 161.36 43.5191 161.68 43.5191C162.08 43.5191 162.32 43.6833 162.56 43.8475C162.88 44.0117 162.96 44.3402 163.04 44.6686L162.48 44.7507C162.4 44.5044 162.32 44.3402 162.16 44.2581C162.08 44.0939 161.92 44.0117 161.68 44.0117C161.36 44.0117 161.12 44.176 160.96 44.3402C160.72 44.5865 160.64 44.915 160.64 45.4076C160.64 45.9003 160.72 46.2288 160.96 46.4751C161.12 46.6393 161.36 46.8035 161.68 46.8035C161.92 46.8035 162.08 46.7214 162.24 46.5572C162.4 46.393 162.48 46.2288 162.56 45.9003ZM157.12 44.0939C157.04 45.3255 156.88 46.1466 156.56 46.7214H158.48V44.0939H157.12ZM156.56 43.6012H159.04V46.7214H159.36V48.1994H158.88V47.2141H156.16V48.1994H155.68V46.7214H156C156.4 46.1466 156.64 45.0792 156.56 43.6012ZM152.72 45.4076C152.72 45.9003 152.88 46.2288 153.04 46.4751C153.2 46.6393 153.44 46.8035 153.76 46.8035C154.08 46.8035 154.32 46.6393 154.48 46.4751C154.72 46.2288 154.8 45.9003 154.8 45.4076C154.8 44.915 154.72 44.6686 154.48 44.4223C154.32 44.176 154.08 44.0117 153.76 44.0117C153.44 44.0117 153.2 44.176 153.04 44.4223C152.88 44.5865 152.72 44.915 152.72 45.4076ZM152.08 45.4076C152.08 44.7507 152.32 44.2581 152.64 43.9296C152.96 43.6833 153.36 43.5191 153.76 43.5191C154.24 43.5191 154.64 43.6833 154.96 44.0117C155.28 44.3402 155.44 44.8329 155.44 45.4076C155.44 45.8182 155.36 46.2288 155.2 46.4751C155.04 46.7214 154.88 46.9678 154.64 47.0499C154.4 47.2141 154.08 47.2962 153.76 47.2962C153.28 47.2962 152.88 47.132 152.56 46.8035C152.24 46.4751 152.08 46.0645 152.08 45.4076ZM149.2 46.7214H150C150.4 46.7214 150.56 46.6393 150.72 46.6393C150.88 46.4751 150.88 46.393 150.88 46.2288C150.88 46.0645 150.88 45.9824 150.8 45.9003C150.72 45.7361 150.64 45.7361 150.56 45.654C150.4 45.654 150.24 45.654 150 45.654H149.2V46.7214ZM149.2 45.1613H149.84C150.16 45.1613 150.32 45.0792 150.4 45.0792C150.48 45.0792 150.56 44.9971 150.64 44.915C150.72 44.8329 150.72 44.7507 150.72 44.6686C150.72 44.4223 150.72 44.3402 150.56 44.2581C150.4 44.176 150.24 44.0939 149.92 44.0939H149.2V45.1613ZM148.64 43.6012H150C150.32 43.6012 150.56 43.6833 150.8 43.6833C150.96 43.7654 151.04 43.8475 151.2 44.0117C151.28 44.176 151.36 44.3402 151.36 44.5865C151.36 44.7507 151.36 44.915 151.28 44.9971C151.2 45.1613 151.12 45.2434 150.96 45.3255C151.12 45.4076 151.28 45.4897 151.36 45.654C151.52 45.8182 151.52 45.9824 151.52 46.2288C151.52 46.5572 151.36 46.8035 151.2 46.9678C150.96 47.132 150.64 47.2141 150.24 47.2141H148.64V43.6012ZM146.16 45.5719V45.0792C146.4 45.0792 146.56 45.0792 146.64 45.0792C146.72 45.0792 146.8 44.9971 146.88 44.915C146.96 44.8329 147.04 44.7507 147.04 44.5865C147.04 44.4223 146.96 44.2581 146.88 44.176C146.8 44.0939 146.64 44.0117 146.48 44.0117C146.16 44.0117 145.92 44.2581 145.76 44.6686L145.2 44.5865C145.36 43.8475 145.76 43.5191 146.48 43.5191C146.8 43.5191 147.12 43.6833 147.36 43.8475C147.52 44.0939 147.68 44.3402 147.68 44.5865C147.68 44.915 147.52 45.1613 147.28 45.3255C147.44 45.4076 147.52 45.5719 147.68 45.654C147.76 45.8182 147.76 45.9824 147.76 46.2288C147.76 46.5572 147.68 46.8035 147.44 46.9678C147.2 47.2141 146.88 47.2962 146.48 47.2962C145.68 47.2962 145.2 46.9678 145.12 46.2288L145.68 46.0645C145.68 46.3109 145.76 46.4751 145.92 46.6393C146.08 46.7214 146.32 46.8035 146.48 46.8035C146.64 46.8035 146.88 46.7214 146.96 46.6393C147.12 46.4751 147.2 46.393 147.2 46.2288C147.2 46.0645 147.12 45.9003 147.04 45.8182C146.96 45.7361 146.88 45.654 146.8 45.654C146.72 45.5719 146.48 45.5719 146.24 45.5719C146.24 45.5719 146.24 45.5719 146.16 45.5719ZM141.36 43.6012H142V46.393L143.6 43.6012H144.24V47.2141H143.68V44.5044L142 47.2141H141.36V43.6012ZM137.84 45.4076C137.84 45.9003 137.92 46.2288 138.16 46.4751C138.32 46.6393 138.56 46.8035 138.88 46.8035C139.2 46.8035 139.44 46.6393 139.6 46.4751C139.84 46.2288 139.92 45.9003 139.92 45.4076C139.92 44.915 139.84 44.6686 139.6 44.4223C139.44 44.176 139.2 44.0117 138.88 44.0117C138.56 44.0117 138.32 44.176 138.16 44.4223C137.92 44.5865 137.84 44.915 137.84 45.4076ZM137.28 45.4076C137.28 44.7507 137.44 44.2581 137.76 43.9296C138.08 43.6833 138.48 43.5191 138.88 43.5191C139.36 43.5191 139.76 43.6833 140.08 44.0117C140.4 44.3402 140.56 44.8329 140.56 45.4076C140.56 45.8182 140.48 46.2288 140.32 46.4751C140.16 46.7214 140 46.9678 139.76 47.0499C139.44 47.2141 139.2 47.2962 138.88 47.2962C138.4 47.2962 138 47.132 137.68 46.8035C137.36 46.4751 137.28 46.0645 137.28 45.4076ZM134.08 45.4076C134.08 45.9003 134.16 46.2288 134.32 46.4751C134.48 46.6393 134.72 46.8035 134.96 46.8035C135.28 46.8035 135.52 46.6393 135.68 46.4751C135.84 46.2288 135.92 45.9003 135.92 45.4076C135.92 44.915 135.84 44.5865 135.68 44.3402C135.52 44.176 135.28 44.0117 135.04 44.0117C134.8 44.0117 134.56 44.176 134.4 44.3402C134.16 44.6686 134.08 44.9971 134.08 45.4076ZM133.52 48.61V43.6012H134.08V44.0939C134.16 43.9296 134.32 43.7654 134.48 43.6833C134.64 43.6012 134.88 43.5191 135.12 43.5191C135.36 43.5191 135.6 43.6012 135.84 43.7654C136.08 43.9296 136.24 44.176 136.4 44.4223C136.48 44.7507 136.56 45.0792 136.56 45.4076C136.56 45.7361 136.48 46.0645 136.4 46.393C136.24 46.6393 136.08 46.8856 135.84 47.0499C135.6 47.2141 135.28 47.2962 135.04 47.2962C134.8 47.2962 134.64 47.2962 134.48 47.132C134.32 47.132 134.24 46.9678 134.08 46.8035V48.61H133.52ZM129.68 43.6012H132.48V47.2141H131.84V44.0939H130.24V47.2141H129.68V43.6012ZM123.6 47.2141L124.88 45.3255L123.68 43.6012H124.4L124.96 44.5044C125.04 44.6686 125.12 44.7507 125.2 44.8329C125.28 44.7507 125.36 44.5865 125.44 44.5044L126.08 43.6012H126.72L125.6 45.3255L126.8 47.2141H126.16L125.44 46.0645L125.2 45.8182L124.32 47.2141H123.6ZM119.52 46.7214H120.16C120.56 46.7214 120.8 46.6393 120.96 46.5572C121.12 46.4751 121.2 46.3109 121.2 46.1466C121.2 45.9824 121.2 45.8182 121.04 45.7361C120.88 45.5719 120.64 45.5719 120.24 45.5719H119.52V46.7214ZM118.96 43.6012H119.52V44.9971H120.32C120.8 44.9971 121.2 45.0792 121.44 45.3255C121.68 45.4897 121.84 45.8182 121.84 46.1466C121.84 46.393 121.76 46.6393 121.52 46.8856C121.28 47.132 120.88 47.2141 120.4 47.2141H118.96V43.6012ZM122.24 43.6012H122.88V47.2141H122.24V43.6012ZM115.04 43.6012H115.6V45.0792H117.28V43.6012H117.84V47.2141H117.28V45.654H115.6V47.2141H115.04V43.6012ZM111.12 43.6012H111.76V45.0792H113.36V43.6012H113.92V47.2141H113.36V45.654H111.76V47.2141H111.12V43.6012ZM107.68 45.0792H109.6C109.6 44.7507 109.52 44.5044 109.36 44.4223C109.2 44.176 108.96 44.0117 108.64 44.0117C108.4 44.0117 108.16 44.176 107.92 44.3402C107.76 44.5044 107.68 44.7507 107.68 45.0792ZM109.6 46.0645L110.24 46.1466C110.08 46.4751 109.92 46.8035 109.68 46.9678C109.36 47.2141 109.04 47.2962 108.64 47.2962C108.16 47.2962 107.76 47.132 107.44 46.8035C107.12 46.4751 106.96 46.0645 106.96 45.4076C106.96 44.8329 107.12 44.3402 107.44 44.0117C107.76 43.6833 108.16 43.5191 108.64 43.5191C109.12 43.5191 109.52 43.6833 109.76 44.0117C110.08 44.3402 110.24 44.8329 110.24 45.4076C110.24 45.4076 110.24 45.4897 110.24 45.5719H107.6C107.6 45.9824 107.76 46.3109 107.92 46.4751C108.16 46.7214 108.4 46.8035 108.64 46.8035C108.88 46.8035 109.04 46.7214 109.2 46.6393C109.36 46.4751 109.52 46.3109 109.6 46.0645ZM102.4 43.6012H103.28L104.24 46.4751L105.28 43.6012H106.08V47.2141H105.52V44.3402L104.48 47.2141H103.92L102.96 44.176V47.2141H102.4V43.6012ZM98.88 45.0792H100.8C100.8 44.7507 100.72 44.5044 100.56 44.4223C100.4 44.176 100.16 44.0117 99.84 44.0117C99.6 44.0117 99.36 44.176 99.2 44.3402C98.96 44.5044 98.88 44.7507 98.88 45.0792ZM100.8 46.0645L101.44 46.1466C101.36 46.4751 101.2 46.8035 100.88 46.9678C100.64 47.2141 100.32 47.2962 99.92 47.2962C99.36 47.2962 98.96 47.132 98.64 46.8035C98.4 46.4751 98.24 46.0645 98.24 45.4076C98.24 44.8329 98.4 44.3402 98.72 44.0117C98.96 43.6833 99.36 43.5191 99.84 43.5191C100.32 43.5191 100.72 43.6833 101.04 44.0117C101.28 44.3402 101.44 44.8329 101.44 45.4076C101.44 45.4076 101.44 45.4897 101.44 45.5719H98.88C98.88 45.9824 98.96 46.3109 99.2 46.4751C99.36 46.7214 99.6 46.8035 99.92 46.8035C100.08 46.8035 100.32 46.7214 100.48 46.6393C100.64 46.4751 100.72 46.3109 100.8 46.0645ZM95.04 45.4076C95.04 45.9003 95.12 46.2288 95.28 46.4751C95.52 46.6393 95.68 46.8035 96 46.8035C96.24 46.8035 96.48 46.6393 96.64 46.4751C96.8 46.2288 96.96 45.9003 96.96 45.4076C96.96 44.915 96.88 44.5865 96.64 44.3402C96.48 44.176 96.24 44.0117 96 44.0117C95.76 44.0117 95.52 44.176 95.36 44.3402C95.12 44.6686 95.04 44.9971 95.04 45.4076ZM94.48 48.61V43.6012H95.04V44.0939C95.2 43.9296 95.28 43.7654 95.44 43.6833C95.6 43.6012 95.84 43.5191 96.08 43.5191C96.32 43.5191 96.64 43.6012 96.88 43.7654C97.04 43.9296 97.28 44.176 97.36 44.4223C97.44 44.7507 97.52 45.0792 97.52 45.4076C97.52 45.7361 97.44 46.0645 97.36 46.393C97.2 46.6393 97.04 46.8856 96.8 47.0499C96.56 47.2141 96.32 47.2962 96 47.2962C95.84 47.2962 95.68 47.2962 95.52 47.132C95.36 47.132 95.2 46.9678 95.12 46.8035V48.61H94.48ZM91.28 46.7214H92.08C92.4 46.7214 92.64 46.6393 92.8 46.6393C92.88 46.4751 92.96 46.393 92.96 46.2288C92.96 46.0645 92.96 45.9824 92.88 45.9003C92.8 45.7361 92.72 45.7361 92.56 45.654C92.48 45.654 92.24 45.654 92 45.654H91.28V46.7214ZM91.28 45.1613H91.92C92.16 45.1613 92.4 45.0792 92.48 45.0792C92.56 45.0792 92.64 44.9971 92.72 44.915C92.8 44.8329 92.8 44.7507 92.8 44.6686C92.8 44.4223 92.72 44.3402 92.64 44.2581C92.48 44.176 92.24 44.0939 91.92 44.0939H91.28V45.1613ZM90.72 43.6012H92.08C92.4 43.6012 92.64 43.6833 92.8 43.6833C92.96 43.7654 93.12 43.8475 93.28 44.0117C93.36 44.176 93.44 44.3402 93.44 44.5865C93.44 44.7507 93.36 44.915 93.28 44.9971C93.28 45.1613 93.12 45.2434 93.04 45.3255C93.2 45.4076 93.28 45.4897 93.44 45.654C93.52 45.8182 93.6 45.9824 93.6 46.2288C93.6 46.5572 93.44 46.8035 93.2 46.9678C93.04 47.132 92.72 47.2141 92.32 47.2141H90.72V43.6012ZM87.12 45.4076C87.12 45.9003 87.28 46.2288 87.44 46.4751C87.68 46.6393 87.92 46.8035 88.16 46.8035C88.48 46.8035 88.72 46.6393 88.88 46.4751C89.12 46.2288 89.2 45.9003 89.2 45.4076C89.2 44.915 89.12 44.6686 88.88 44.4223C88.72 44.176 88.48 44.0117 88.16 44.0117C87.92 44.0117 87.68 44.176 87.44 44.4223C87.28 44.5865 87.12 44.915 87.12 45.4076ZM86.56 45.4076C86.56 44.7507 86.72 44.2581 87.04 43.9296C87.36 43.6833 87.76 43.5191 88.16 43.5191C88.64 43.5191 89.04 43.6833 89.36 44.0117C89.68 44.3402 89.84 44.8329 89.84 45.4076C89.84 45.8182 89.76 46.2288 89.6 46.4751C89.52 46.7214 89.28 46.9678 89.04 47.0499C88.8 47.2141 88.48 47.2962 88.16 47.2962C87.68 47.2962 87.28 47.132 86.96 46.8035C86.72 46.4751 86.56 46.0645 86.56 45.4076ZM85.44 45.9003L86 45.9824C85.92 46.393 85.76 46.7214 85.52 46.9678C85.28 47.2141 84.96 47.2962 84.56 47.2962C84.08 47.2962 83.68 47.132 83.36 46.8035C83.12 46.4751 82.96 46.0645 82.96 45.4076C82.96 45.0792 82.96 44.6686 83.12 44.4223C83.28 44.0939 83.44 43.9296 83.68 43.7654C83.92 43.6012 84.24 43.5191 84.56 43.5191C84.96 43.5191 85.28 43.6833 85.44 43.8475C85.68 44.0117 85.84 44.3402 85.92 44.6686L85.36 44.7507C85.28 44.5044 85.2 44.3402 85.04 44.2581C84.96 44.0939 84.8 44.0117 84.56 44.0117C84.24 44.0117 84 44.176 83.84 44.3402C83.68 44.5865 83.6 44.915 83.6 45.4076C83.6 45.9003 83.6 46.2288 83.84 46.4751C84 46.6393 84.24 46.8035 84.56 46.8035C84.8 46.8035 84.96 46.7214 85.12 46.5572C85.28 46.393 85.36 46.2288 85.44 45.9003ZM79.36 44.0939H78.48C78.16 44.0939 77.92 44.176 77.76 44.3402C77.68 44.4223 77.6 44.5044 77.6 44.6686C77.6 44.915 77.68 45.0792 77.84 45.1613C78 45.2434 78.24 45.3255 78.64 45.3255H79.36V44.0939ZM79.92 43.6012V47.2141H79.36V45.8182H78.96C78.72 45.8182 78.56 45.8182 78.48 45.9003C78.4 45.9824 78.24 46.1466 78.08 46.393L77.52 47.2141H76.8L77.44 46.2288C77.68 45.9824 77.84 45.8182 78 45.7361C77.68 45.7361 77.44 45.5719 77.28 45.4076C77.12 45.1613 77.04 44.915 77.04 44.6686C77.04 44.3402 77.12 44.0939 77.36 43.9296C77.52 43.6833 77.84 43.6012 78.24 43.6012H79.92ZM73.28 43.6012H76.08V47.2141H75.44V44.0939H73.92V45.9003C73.92 46.3109 73.92 46.6393 73.84 46.7214C73.84 46.8856 73.76 46.9678 73.68 47.132C73.52 47.2141 73.36 47.2141 73.12 47.2141C72.96 47.2141 72.8 47.2141 72.64 47.2141V46.7214H72.88C73.04 46.7214 73.12 46.7214 73.2 46.6393C73.2 46.6393 73.28 46.6393 73.28 46.5572C73.28 46.4751 73.28 46.3109 73.28 45.9824V43.6012ZM69.84 44.0939C69.84 45.3255 69.6 46.1466 69.36 46.7214H71.2V44.0939H69.84ZM69.36 43.6012H71.76V46.7214H72.16V48.1994H71.68V47.2141H68.96V48.1994H68.48V46.7214H68.72C69.2 46.1466 69.36 45.0792 69.36 43.6012ZM167.36 37.3607H169.36C169.28 37.0323 169.2 36.868 169.12 36.7038C168.88 36.4575 168.64 36.2933 168.32 36.2933C168.08 36.2933 167.84 36.3754 167.68 36.6217C167.52 36.7859 167.36 37.0323 167.36 37.3607ZM169.28 38.3461L169.92 38.4282C169.84 38.7566 169.68 39.0851 169.36 39.2493C169.12 39.4956 168.8 39.5777 168.4 39.5777C167.84 39.5777 167.44 39.4135 167.2 39.0851C166.88 38.7566 166.72 38.3461 166.72 37.7713C166.72 37.1144 166.88 36.7038 167.2 36.2933C167.44 35.9648 167.84 35.8006 168.32 35.8006C168.8 35.8006 169.2 35.9648 169.52 36.2933C169.84 36.6217 169.92 37.1144 169.92 37.6892C169.92 37.7713 169.92 37.7713 169.92 37.8534H167.36C167.36 38.2639 167.44 38.5924 167.68 38.7566C167.84 39.0029 168.08 39.0851 168.4 39.0851C168.64 39.0851 168.8 39.0029 168.96 38.9208C169.12 38.7566 169.2 38.5924 169.28 38.3461ZM157.92 35.8827H158.48V38.6745L160.16 35.8827H160.8V39.4956H160.24V36.7859L158.56 39.4956H157.92V35.8827ZM149.04 35.8827H149.6V37.4428H151.2V35.8827H151.84V39.4956H151.2V37.9355H149.6V39.4956H149.04V35.8827ZM142.24 37.6892C142 37.7713 141.68 37.8534 141.28 37.9355C141.04 37.9355 140.88 38.0176 140.8 38.0176C140.64 38.0997 140.56 38.1818 140.56 38.2639C140.48 38.3461 140.48 38.4282 140.48 38.5103C140.48 38.6745 140.48 38.8387 140.64 38.9208C140.72 39.0029 140.88 39.0851 141.12 39.0851C141.36 39.0851 141.6 39.0029 141.76 38.9208C141.92 38.8387 142.08 38.7566 142.16 38.5103C142.24 38.4282 142.24 38.1818 142.24 37.9355V37.6892ZM142.24 39.0851C142.08 39.2493 141.84 39.4135 141.6 39.4956C141.44 39.4956 141.2 39.5777 140.96 39.5777C140.64 39.5777 140.32 39.4956 140.16 39.3314C139.92 39.0851 139.84 38.8387 139.84 38.5924C139.84 38.3461 139.84 38.1818 139.92 38.0997C140 37.9355 140.16 37.7713 140.24 37.6892C140.4 37.6071 140.48 37.6071 140.64 37.5249C140.8 37.5249 140.96 37.4428 141.2 37.4428C141.68 37.3607 142 37.2786 142.24 37.1965C142.24 37.1144 142.24 37.1144 142.24 37.0323C142.24 36.7859 142.16 36.6217 142.08 36.5396C141.92 36.3754 141.68 36.2933 141.36 36.2933C141.12 36.2933 140.96 36.3754 140.8 36.4575C140.64 36.5396 140.56 36.7859 140.48 37.0323L139.92 36.9502C140 36.7038 140.08 36.4575 140.16 36.2933C140.32 36.129 140.48 36.0469 140.72 35.9648C140.96 35.8827 141.2 35.8006 141.52 35.8006C141.76 35.8006 142 35.8827 142.24 35.9648C142.4 36.0469 142.56 36.0469 142.64 36.2112C142.72 36.2933 142.8 36.4575 142.8 36.6217C142.8 36.7038 142.88 36.868 142.88 37.1965V38.0176C142.88 38.5924 142.88 38.9208 142.88 39.0851C142.88 39.2493 142.96 39.3314 143.04 39.4956H142.4C142.32 39.3314 142.32 39.2493 142.24 39.0851ZM131.92 39.0029H132.64C132.96 39.0029 133.2 38.9208 133.36 38.9208C133.44 38.8387 133.52 38.6745 133.52 38.4282C133.52 38.3461 133.52 38.2639 133.44 38.0997C133.36 38.0176 133.28 38.0176 133.12 37.9355C133.04 37.9355 132.88 37.9355 132.56 37.9355H131.92V39.0029ZM131.92 37.4428H132.56C132.8 37.4428 132.96 37.4428 133.04 37.3607C133.12 37.3607 133.2 37.2786 133.28 37.1965C133.36 37.1144 133.44 37.0323 133.44 36.9502C133.44 36.7038 133.36 36.6217 133.2 36.5396C133.04 36.4575 132.88 36.3754 132.56 36.3754H131.92V37.4428ZM131.28 35.8827H132.64C132.96 35.8827 133.28 35.9648 133.44 35.9648C133.6 36.0469 133.68 36.129 133.84 36.2933C133.92 36.4575 134 36.6217 134 36.868C134 37.0323 134 37.1965 133.92 37.3607C133.84 37.4428 133.76 37.5249 133.6 37.6071C133.76 37.6892 133.92 37.7713 134 37.9355C134.08 38.0997 134.16 38.2639 134.16 38.5103C134.16 38.8387 134 39.0851 133.84 39.2493C133.6 39.4135 133.28 39.4956 132.88 39.4956H131.28V35.8827ZM122.72 37.6892C122.72 38.1818 122.8 38.5103 123.04 38.7566C123.2 39.0029 123.44 39.0851 123.76 39.0851C124.08 39.0851 124.32 39.0029 124.48 38.7566C124.64 38.5103 124.8 38.1818 124.8 37.6892C124.8 37.2786 124.64 36.868 124.48 36.7038C124.32 36.4575 124.08 36.2933 123.76 36.2933C123.44 36.2933 123.2 36.4575 123.04 36.7038C122.8 36.868 122.72 37.2786 122.72 37.6892ZM122.08 37.6892C122.08 37.0323 122.32 36.5396 122.64 36.2112C122.96 35.9648 123.28 35.8006 123.76 35.8006C124.24 35.8006 124.64 35.9648 124.96 36.2933C125.28 36.6217 125.36 37.1144 125.36 37.6071C125.36 38.0997 125.28 38.5103 125.2 38.7566C125.04 39.0029 124.88 39.1672 124.56 39.3314C124.32 39.4956 124.08 39.5777 123.76 39.5777C123.28 39.5777 122.88 39.4135 122.56 39.0851C122.24 38.7566 122.08 38.3461 122.08 37.6892ZM114.16 36.3754C114.08 37.6071 113.92 38.4282 113.6 39.0029H115.52V36.3754H114.16ZM113.6 35.8827H116.08V39.0029H116.48V40.481H116V39.4956H113.2V40.481H112.72V39.0029H113.04C113.44 38.4282 113.68 37.3607 113.6 35.8827ZM104.8 40.8915L104.72 40.3167C104.88 40.3167 104.96 40.3988 105.04 40.3988C105.2 40.3988 105.28 40.3167 105.36 40.3167C105.44 40.2346 105.52 40.1525 105.6 40.1525C105.6 40.0704 105.68 39.9062 105.76 39.6598C105.76 39.6598 105.76 39.5777 105.84 39.4956L104.48 35.8827H105.12L105.84 38.0176C105.92 38.2639 106 38.5103 106.08 38.8387C106.16 38.5103 106.24 38.2639 106.32 38.0176L107.12 35.8827H107.68L106.32 39.5777C106.24 39.9883 106.08 40.2346 106 40.3988C105.92 40.5631 105.76 40.7273 105.68 40.8094C105.52 40.8915 105.36 40.9736 105.2 40.9736C105.04 40.9736 104.96 40.8915 104.8 40.8915ZM96.48 37.6892C96.48 38.1818 96.56 38.5103 96.72 38.7566C96.96 39.0029 97.12 39.0851 97.44 39.0851C97.68 39.0851 97.84 39.0029 98.08 38.7566C98.24 38.5103 98.32 38.1818 98.32 37.6892C98.32 37.1965 98.24 36.868 98.08 36.6217C97.92 36.3754 97.68 36.2933 97.44 36.2933C97.2 36.2933 96.96 36.3754 96.8 36.7038C96.56 36.868 96.48 37.2786 96.48 37.6892ZM95.92 40.8915V35.8827H96.48V36.3754C96.64 36.2112 96.72 36.0469 96.96 35.9648C97.04 35.8827 97.28 35.8006 97.44 35.8006C97.76 35.8006 98 35.8827 98.24 36.0469C98.48 36.2112 98.64 36.4575 98.8 36.7038C98.88 37.0323 98.96 37.3607 98.96 37.6892C98.96 38.0176 98.88 38.3461 98.72 38.6745C98.64 39.0029 98.4 39.1672 98.16 39.3314C98 39.4956 97.68 39.5777 97.44 39.5777C97.28 39.5777 97.04 39.4956 96.96 39.4956C96.8 39.3314 96.64 39.2493 96.56 39.1672V40.8915H95.92ZM87.36 37.6892C87.36 38.1818 87.44 38.5103 87.6 38.7566C87.84 39.0029 88.08 39.0851 88.32 39.0851C88.64 39.0851 88.88 39.0029 89.12 38.7566C89.28 38.5103 89.36 38.1818 89.36 37.6892C89.36 37.2786 89.28 36.868 89.12 36.7038C88.88 36.4575 88.64 36.2933 88.32 36.2933C88.08 36.2933 87.84 36.4575 87.6 36.7038C87.44 36.868 87.36 37.2786 87.36 37.6892ZM86.72 37.6892C86.72 37.0323 86.88 36.5396 87.28 36.2112C87.52 35.9648 87.92 35.8006 88.32 35.8006C88.88 35.8006 89.2 35.9648 89.52 36.2933C89.84 36.6217 90 37.1144 90 37.6071C90 38.0997 89.92 38.5103 89.76 38.7566C89.68 39.0029 89.44 39.1672 89.2 39.3314C88.96 39.4956 88.64 39.5777 88.32 39.5777C87.84 39.5777 87.44 39.4135 87.2 39.0851C86.88 38.7566 86.72 38.3461 86.72 37.6892ZM80.4 37.6892C80.4 37.3607 80.32 37.0323 80.16 36.7859C80 36.5396 79.76 36.3754 79.44 36.3754C79.12 36.3754 78.88 36.5396 78.64 36.7859C78.48 37.0323 78.4 37.3607 78.4 37.7713C78.4 38.2639 78.48 38.5103 78.72 38.7566C78.88 39.0029 79.12 39.0851 79.44 39.0851C79.68 39.0851 79.92 39.0029 80.16 38.7566C80.32 38.4282 80.4 38.0997 80.4 37.6892ZM80.4 34.4868H80.96C80.96 34.651 80.88 34.8153 80.8 34.8974C80.72 34.9795 80.64 35.0616 80.48 35.1437C80.4 35.1437 80.08 35.1437 79.76 35.1437C79.28 35.1437 78.88 35.2258 78.72 35.3079C78.56 35.39 78.4 35.5543 78.4 35.8006C78.24 35.9648 78.24 36.2112 78.24 36.6217C78.4 36.3754 78.56 36.2112 78.72 36.0469C78.96 35.9648 79.2 35.8827 79.44 35.8827C79.92 35.8827 80.24 36.0469 80.56 36.3754C80.88 36.7038 81.04 37.1965 81.04 37.6892C81.04 38.0997 80.96 38.4282 80.8 38.7566C80.64 39.0029 80.48 39.1672 80.24 39.3314C80.08 39.4956 79.76 39.5777 79.44 39.5777C79.04 39.5777 78.64 39.4956 78.4 39.3314C78.24 39.0851 78 38.8387 77.92 38.5103C77.76 38.2639 77.76 37.6892 77.76 36.9502C77.76 35.9648 77.92 35.39 78.16 35.0616C78.48 34.7332 78.96 34.5689 79.68 34.5689C80.08 34.5689 80.24 34.5689 80.32 34.5689C80.4 34.4868 80.4 34.4868 80.4 34.4868ZM69.28 37.6892C69.28 38.1818 69.36 38.5103 69.6 38.7566C69.76 39.0029 70 39.0851 70.32 39.0851C70.64 39.0851 70.88 39.0029 71.04 38.7566C71.28 38.5103 71.36 38.1818 71.36 37.6892C71.36 37.2786 71.28 36.868 71.04 36.7038C70.88 36.4575 70.64 36.2933 70.32 36.2933C70 36.2933 69.76 36.4575 69.6 36.7038C69.36 36.868 69.28 37.2786 69.28 37.6892ZM68.64 37.6892C68.64 37.0323 68.88 36.5396 69.2 36.2112C69.52 35.9648 69.92 35.8006 70.32 35.8006C70.8 35.8006 71.2 35.9648 71.52 36.2933C71.76 36.6217 71.92 37.1144 71.92 37.6071C71.92 38.0997 71.92 38.5103 71.76 38.7566C71.6 39.0029 71.44 39.1672 71.12 39.3314C70.88 39.4956 70.64 39.5777 70.32 39.5777C69.84 39.5777 69.44 39.4135 69.12 39.0851C68.8 38.7566 68.64 38.3461 68.64 37.6892Z" fill="white"/>
</g>
<defs>
<clipPath id="clip0_80_1161">
<rect width="170" height="56" fill="white"/>
</clipPath>
</defs>
</svg>
