<svg width="170" height="56" viewBox="0 0 170 56" fill="none" xmlns="http://www.w3.org/2000/svg">
<g clip-path="url(#clip0_87_2080)">
<path fill-rule="evenodd" clip-rule="evenodd" d="M22.8 43.0264C30.96 42.6158 37.92 39.9883 41.28 36.3754V30.217C45.44 30.4633 49.84 31.2845 53.44 33.0909C54 33.4194 54.8 33.912 55.6 34.5689V47.2962C54.8 47.871 54 48.3636 53.44 48.6921C49.2 50.827 43.84 51.6481 39.2 51.6481C34.48 51.6481 29.2 50.827 24.96 48.6921C24.4 48.3636 23.52 47.871 22.8 47.2962V43.0264ZM52.48 28C55.6 26.8504 58.24 25.2903 59.84 23.4018V6.73314C56.24 2.70968 48.32 0 39.2 0C30 0 22.16 2.70968 18.48 6.73314V12.8915C10.24 13.3021 3.28 16.0117 0 19.6246V36.3754C3.28 39.9883 10.24 42.6158 18.48 43.0264V49.2669C22.16 53.2903 30 56 39.2 56C48.32 56 56.24 53.2903 59.84 49.2669V32.5982C58.24 30.7097 55.6 29.1496 52.48 28ZM18.48 17.3255V23.4018C20.16 25.2903 22.72 26.8504 25.92 28C22.72 29.1496 20.16 30.7097 18.48 32.5982V38.6745C14.4 38.4282 10 37.607 6.4 35.8006C5.84 35.4721 5.04 34.9795 4.16 34.4047V21.5953C5.04 21.0205 5.84 20.5279 6.4 20.1994C10 18.393 14.4 17.5718 18.48 17.3255ZM22.8 21.4311V17.3255C26.88 17.5718 31.28 18.393 34.88 20.1994C35.36 20.5279 36.24 21.0205 37.04 21.5953V25.783C32.96 25.5367 28.56 24.7155 24.96 22.827C24.4 22.5806 23.52 22.088 22.8 21.4311ZM22.8 12.8915V8.70381C23.52 8.04692 24.4 7.55425 24.96 7.30792C29.2 5.09091 34.48 4.35191 39.2 4.35191C43.84 4.35191 49.2 5.09091 53.44 7.30792C54 7.55425 54.8 8.04692 55.6 8.70381V21.4311C54.8 22.088 54 22.5806 53.44 22.827C49.84 24.7155 45.44 25.5367 41.28 25.783V19.6246C37.92 16.0117 30.96 13.3021 22.8 12.8915ZM22.8 38.6745V34.5689C23.52 33.912 24.4 33.4194 24.96 33.0909C28.56 31.2845 32.96 30.4633 37.04 30.217V34.4047C36.24 34.9795 35.36 35.4721 34.88 35.8006C31.28 37.607 26.88 38.4282 22.8 38.6745Z" fill="#0065BD"/>
<path fill-rule="evenodd" clip-rule="evenodd" d="M148.08 18H169.84V22.8446H161.04V37.2141H155.04V22.8446H146.24L148.08 18ZM124.48 18H145.28V22.8446H130.56V25.3079H145.36L145.28 29.9062H130.56V32.3695H145.28V37.2141H124.48V18ZM68.48 18H74.48V32.3695H87.44V18H93.44V32.3695H98.56L96.72 37.2141H68.48V18ZM105.52 32.3695H112.16C113.84 32.3695 114.8 32.3695 115.12 32.3695C115.44 32.3695 115.68 32.2874 115.92 32.2053C116.4 32.1232 116.64 31.7126 116.64 31.0557C116.64 30.4809 116.32 30.0704 115.76 29.9883C115.6 29.9062 114.32 29.9062 112.16 29.9062H105.52V32.3695ZM105.52 25.3079H112.56C114.32 25.3079 115.36 25.2258 115.68 25.1437C116.16 24.9795 116.32 24.651 116.32 23.9941C116.32 23.4194 116.08 23.0088 115.52 22.9267C115.36 22.8446 114.32 22.8446 112.56 22.8446H105.52V25.3079ZM99.44 37.2141V18H113.6C116.56 18 117.52 18 118.08 18.0821C119.68 18.1642 120.72 18.5748 121.36 19.3138C122.08 20.0528 122.4 21.2845 122.4 23.0088C122.4 24.4047 122.24 25.39 121.84 26.0469C121.44 26.7038 120.72 27.2786 119.84 27.607C120.64 27.8534 121.52 28.2639 121.92 28.8387C122.56 29.6598 122.72 30.8915 122.72 32.0411C122.72 34.2581 122.16 35.5718 120.96 36.393C120.24 36.8035 119.28 37.0499 118 37.132C117.36 37.132 116.56 37.2141 113.92 37.2141H99.44Z" fill="#0065BD"/>
</g>
<defs>
<clipPath id="clip0_87_2080">
<rect width="170" height="56" fill="white"/>
</clipPath>
</defs>
</svg>
