<svg width="160" height="173" viewBox="0 0 160 173" fill="none" xmlns="http://www.w3.org/2000/svg">
<g filter="url(#filter0_d_316_3183)">
<path d="M80 154C80 146.621 73.75 141.05 68.5 140H91.5C86.25 141.05 80 146.588 80 154Z" fill="white"/>
<circle cx="80" cy="76" r="65" fill="white"/>
</g>
<circle cx="80" cy="159" r="3" fill="#0065BD"/>
<path fill-rule="evenodd" clip-rule="evenodd" d="M101.114 88.915H117V92.4519H110.575V102.943H106.195V92.4519H99.7703L101.114 88.915ZM83.884 88.915H99.0695V92.4519H88.3228V94.2503H99.1279L99.0695 97.6074H88.3228V99.4058H99.0695V102.943H83.884V88.915ZM43 88.915H47.3804V99.4058H56.8421V88.915H61.2226V99.4058H64.9605L63.6172 102.943H43V88.915ZM70.0418 99.4058H74.8895C76.116 99.4058 76.8169 99.4058 77.0505 99.4058C77.2841 99.4058 77.4593 99.3458 77.6346 99.2859C77.985 99.226 78.1602 98.9262 78.1602 98.4466C78.1602 98.027 77.9266 97.7273 77.5178 97.6673C77.4009 97.6074 76.4665 97.6074 74.8895 97.6074H70.0418V99.4058ZM70.0418 94.2503H75.1815C76.4665 94.2503 77.2257 94.1904 77.4594 94.1304C77.8098 94.0105 77.9266 93.7708 77.9266 93.2912C77.9266 92.8716 77.7514 92.5718 77.3425 92.5119C77.2257 92.4519 76.4665 92.4519 75.1815 92.4519H70.0418V94.2503ZM65.603 102.943V88.915H75.9408C78.1018 88.915 78.8027 88.915 79.2115 88.975C80.3796 89.0349 81.1389 89.3347 81.6062 89.8742C82.1318 90.4137 82.3654 91.3129 82.3654 92.5718C82.3654 93.5909 82.2486 94.3103 81.9566 94.7899C81.6646 95.2694 81.1389 95.6891 80.4964 95.9289C81.0805 96.1087 81.723 96.4084 82.015 96.8281C82.4822 97.4275 82.599 98.3267 82.599 99.166C82.599 100.785 82.1902 101.744 81.3141 102.343C80.7885 102.643 80.0876 102.823 79.1531 102.883C78.6859 102.883 78.1018 102.943 76.1744 102.943H65.603Z" fill="#0065BD"/>
<path fill-rule="evenodd" clip-rule="evenodd" d="M74.6456 75.4123C80.603 75.1126 85.6843 73.1943 88.1373 70.5566V66.0606C91.1744 66.2404 94.3867 66.8399 97.015 68.1587C97.4238 68.3985 98.0079 68.7582 98.5919 69.2378V78.5296C98.0079 78.9492 97.4238 79.3089 97.015 79.5487C93.9195 81.1073 90.0063 81.7068 86.6188 81.7068C83.1728 81.7068 79.3181 81.1073 76.2226 79.5487C75.8137 79.3089 75.1713 78.9492 74.6456 78.5296V75.4123ZM96.3141 64.442C98.5919 63.6027 100.519 62.4637 101.687 61.0849V48.9157C99.0592 45.9783 93.277 44 86.6188 44C79.9021 44 74.1784 45.9783 71.4917 48.9157V53.4117C65.4759 53.7114 60.3946 55.6897 58 58.3274V70.5566C60.3946 73.1943 65.4759 75.1126 71.4917 75.4123V79.9683C74.1784 82.9057 79.9021 84.884 86.6188 84.884C93.277 84.884 99.0592 82.9057 101.687 79.9683V67.799C100.519 66.4202 98.5919 65.2812 96.3141 64.442ZM71.4917 56.6489V61.0849C72.7182 62.4637 74.5872 63.6027 76.9234 64.442C74.5872 65.2812 72.7182 66.4202 71.4917 67.799V72.2351C68.513 72.0553 65.3007 71.4558 62.6725 70.137C62.2636 69.8972 61.6796 69.5375 61.0371 69.1179V59.7661C61.6796 59.3465 62.2636 58.9868 62.6725 58.747C65.3007 57.4282 68.513 56.8287 71.4917 56.6489ZM74.6456 59.6462V56.6489C77.6243 56.8287 80.8366 57.4282 83.4649 58.747C83.8153 58.9868 84.4578 59.3465 85.0418 59.7661V62.8234C82.0631 62.6436 78.8508 62.0441 76.2226 60.6653C75.8137 60.4855 75.1713 60.1258 74.6456 59.6462ZM74.6456 53.4117V50.3544C75.1713 49.8748 75.8137 49.5151 76.2226 49.3353C79.3181 47.7167 83.1728 47.1772 86.6188 47.1772C90.0063 47.1772 93.9195 47.7167 97.015 49.3353C97.4238 49.5151 98.0079 49.8748 98.5919 50.3544V59.6462C98.0079 60.1258 97.4238 60.4855 97.015 60.6653C94.3867 62.0441 91.1744 62.6436 88.1373 62.8234V58.3274C85.6843 55.6897 80.603 53.7114 74.6456 53.4117ZM74.6456 72.2351V69.2378C75.1713 68.7582 75.8137 68.3985 76.2226 68.1587C78.8508 66.8399 82.0631 66.2404 85.0418 66.0606V69.1179C84.4578 69.5375 83.8153 69.8972 83.4649 70.137C80.8366 71.4558 77.6243 72.0553 74.6456 72.2351Z" fill="#0065BD"/>
<defs>
<filter id="filter0_d_316_3183" x="0" y="0" width="160" height="173" filterUnits="userSpaceOnUse" color-interpolation-filters="sRGB">
<feFlood flood-opacity="0" result="BackgroundImageFix"/>
<feColorMatrix in="SourceAlpha" type="matrix" values="0 0 0 0 0 0 0 0 0 0 0 0 0 0 0 0 0 0 127 0" result="hardAlpha"/>
<feOffset dy="4"/>
<feGaussianBlur stdDeviation="7.5"/>
<feComposite in2="hardAlpha" operator="out"/>
<feColorMatrix type="matrix" values="0 0 0 0 0.0814236 0 0 0 0 0.193776 0 0 0 0 0.291667 0 0 0 0.15 0"/>
<feBlend mode="normal" in2="BackgroundImageFix" result="effect1_dropShadow_316_3183"/>
<feBlend mode="normal" in="SourceGraphic" in2="effect1_dropShadow_316_3183" result="shape"/>
</filter>
</defs>
</svg>
